<?xml version="1.0" encoding="UTF-8" standalone="no"?>
<svg xmlns="http://www.w3.org/2000/svg" version="1.1" viewBox="0 0 310 107.97" height="107.97" width="310">
 <defs/>
 <g transform="translate(-2682.9,-1678.8)">
  <g transform="matrix(0.90534,0,0,-0.90534,2652,2152.8)">
   <g transform="translate(376.65,418.82)">
    <path d="m -38.344,54.509 c -17.511,5.66 -22.48,10.53 -22.48,15.68 0,7.27 8.649,11.61 21.179,11.61 4.86,0 8.371,-0.43 10.82,-0.97 l -0.1,-14.43 16.51,-0.28 1.17,28.96 c -7.829,1.88 -19.799,4.1 -29.82,4.1 -23.18,0 -41.489,-10.98 -41.489,-30.9 0,-18.9 12.72,-25.88 35.239,-32.91 17.36,-5.42 19.21,-9.55 19.21,-14.89 0,-6.13 -8.56,-10.68 -19.48,-10.68 -11.2,0 -23.589,3.8 -31.19,6.95 -2.09,-4.41 -6.54,-11.88 -9.469,-16.13 11.279,-6.21 24.79,-9.6 39.879,-9.6 23.091,0 42.6804,10.95 42.6804,32.59 0,16.86 -10.1094,23.67 -32.6594,30.9" style="fill:#0073ae"/>
   </g>
   <g transform="translate(350.75,417.05)">
    <path d="m -271.5,38.611 14.63,41.26 14.61,-41.26 -29.24,0 z m 30.94,61.659 -44.85,0 0,-13.159 11.26,0 -28.06,-79.2398 -8.94,0 0,-13.17 37.62,0 0,13.17 -8.83,0 5.1,14.4598 40.8,0 5.14,-14.4598 -8.31,0 0,-13.17 40.27,0 0,13.17 -8.4,0 -32.8,92.3988 z" style="fill:#0073ae"/>
   </g>
   <g transform="translate(369.92,416.25)">
    <path d="m -98.986,31.323 c -11.374,3.34 -19.734,14.42 -19.734,27.6 0,3.04 0.46,6.02 1.3,8.76 11.36,-3.33 19.734,-14.41 19.734,-27.6 0,-3.06 -0.45,-6 -1.3,-8.76 m -7.474,51.63 0,0.02 c -5.56,2.33 -11.67,3.63 -18.09,3.63 -1.66,0 -3.28,-0.08 -4.89,-0.23 -5.62,-7.71 -8.95,-17.22 -8.95,-27.45 0,-19.27 11.75,-35.82 28.43,-42.86 -4.21,-2.92 -9.23,-4.65 -14.59,-4.65 -14.86,0 -26.85,12.86 -26.85,28.67 0,6.78 2.23,13.09 5.97,17.99 0,7.27 2.57,20.48 6.46,26.25 -18.75,-6.03 -32.12,-23.84 -32.12,-44.24 0,-8.12 2.07,-15.71 5.71,-22.36 -4.41,-4.65 -10.37,-7.32 -16.04,-7.32 -7.68,0 -13.21,6.01 -13.21,15.05 l 0,41.41 23.98,0 0,16.46 -23.98,0 0,17.787 -21.53,0 0,-17.787 -15.8,0 0,-16.46 15.8,0 0,-43.52 c 0,-22.34982 15.55,-29.6998 30.67,-29.6998 12.69,0 22.98,5.98998 28.71,12.9 8.36,-8.04 19.71,-13.01 32.23,-13.01 25.334,0 46.534,20.7298 46.534,46.5498 0,19.27 -11.75,35.81 -28.444,42.87" style="fill:#0073ae"/>
   </g>
  </g>
 </g>
</svg>